<mxfile host="app.diagrams.net" modified="2024-05-13T15:30:43.497Z" agent="Mozilla/5.0 (Windows NT 10.0; Win64; x64) AppleWebKit/537.36 (KHTML, like Gecko) Chrome/124.0.0.0 Safari/537.36" etag="nOdDcLicyEdSToJ2NXX8" version="24.4.0" type="device">
  <diagram id="C5RBs43oDa-KdzZeNtuy" name="Page-1">
    <mxGraphModel dx="1434" dy="3084" grid="1" gridSize="10" guides="1" tooltips="1" connect="1" arrows="1" fold="1" page="1" pageScale="1" pageWidth="827" pageHeight="1169" math="0" shadow="0">
      <root>
        <mxCell id="WIyWlLk6GJQsqaUBKTNV-0" />
        <mxCell id="WIyWlLk6GJQsqaUBKTNV-1" parent="WIyWlLk6GJQsqaUBKTNV-0" />
        <mxCell id="WIyWlLk6GJQsqaUBKTNV-2" value="" style="rounded=0;html=1;jettySize=auto;orthogonalLoop=1;fontSize=11;endArrow=block;endFill=0;endSize=8;strokeWidth=1;shadow=0;labelBackgroundColor=none;edgeStyle=orthogonalEdgeStyle;exitX=0.5;exitY=1;exitDx=0;exitDy=0;entryX=0.5;entryY=0;entryDx=0;entryDy=0;" parent="WIyWlLk6GJQsqaUBKTNV-1" source="zASFLG1L3WaEbDSjhx9o-14" target="zASFLG1L3WaEbDSjhx9o-2" edge="1">
          <mxGeometry relative="1" as="geometry">
            <mxPoint x="400" y="160" as="sourcePoint" />
            <Array as="points" />
          </mxGeometry>
        </mxCell>
        <mxCell id="zASFLG1L3WaEbDSjhx9o-32" style="edgeStyle=orthogonalEdgeStyle;rounded=0;orthogonalLoop=1;jettySize=auto;html=1;exitX=0;exitY=0.5;exitDx=0;exitDy=0;entryX=0;entryY=0.5;entryDx=0;entryDy=0;" edge="1" parent="WIyWlLk6GJQsqaUBKTNV-1" source="WIyWlLk6GJQsqaUBKTNV-6" target="zASFLG1L3WaEbDSjhx9o-2">
          <mxGeometry relative="1" as="geometry">
            <mxPoint x="90" y="-1980" as="targetPoint" />
            <mxPoint x="149" y="-1720" as="sourcePoint" />
            <Array as="points">
              <mxPoint x="150" y="-1860" />
              <mxPoint x="150" y="-2120" />
            </Array>
          </mxGeometry>
        </mxCell>
        <mxCell id="zASFLG1L3WaEbDSjhx9o-36" value="" style="edgeStyle=orthogonalEdgeStyle;rounded=0;orthogonalLoop=1;jettySize=auto;html=1;" edge="1" parent="WIyWlLk6GJQsqaUBKTNV-1" source="WIyWlLk6GJQsqaUBKTNV-6" target="zASFLG1L3WaEbDSjhx9o-5">
          <mxGeometry relative="1" as="geometry" />
        </mxCell>
        <mxCell id="WIyWlLk6GJQsqaUBKTNV-6" value="проверка наличия&amp;nbsp;&lt;div&gt;у пользователя&amp;nbsp;&lt;/div&gt;&lt;div&gt;премиум-подписки&lt;/div&gt;" style="rhombus;whiteSpace=wrap;html=1;shadow=0;fontFamily=Helvetica;fontSize=12;align=center;strokeWidth=1;spacing=6;spacingTop=-4;" parent="WIyWlLk6GJQsqaUBKTNV-1" vertex="1">
          <mxGeometry x="274" y="-1930" width="170" height="140" as="geometry" />
        </mxCell>
        <mxCell id="zASFLG1L3WaEbDSjhx9o-0" value="Начало" style="ellipse;whiteSpace=wrap;html=1;" vertex="1" parent="WIyWlLk6GJQsqaUBKTNV-1">
          <mxGeometry x="312" y="-2330" width="94" height="60" as="geometry" />
        </mxCell>
        <mxCell id="zASFLG1L3WaEbDSjhx9o-16" value="" style="edgeStyle=orthogonalEdgeStyle;rounded=0;orthogonalLoop=1;jettySize=auto;html=1;" edge="1" parent="WIyWlLk6GJQsqaUBKTNV-1" source="zASFLG1L3WaEbDSjhx9o-2" target="zASFLG1L3WaEbDSjhx9o-4">
          <mxGeometry relative="1" as="geometry" />
        </mxCell>
        <mxCell id="zASFLG1L3WaEbDSjhx9o-31" value="" style="edgeStyle=orthogonalEdgeStyle;rounded=0;orthogonalLoop=1;jettySize=auto;html=1;exitX=1;exitY=0.5;exitDx=0;exitDy=0;" edge="1" parent="WIyWlLk6GJQsqaUBKTNV-1" source="zASFLG1L3WaEbDSjhx9o-2" target="zASFLG1L3WaEbDSjhx9o-23">
          <mxGeometry relative="1" as="geometry">
            <mxPoint x="540" y="-2080" as="sourcePoint" />
            <Array as="points">
              <mxPoint x="539" y="-2120" />
              <mxPoint x="539" y="-2020" />
              <mxPoint x="760" y="-2020" />
              <mxPoint x="760" y="-1230" />
            </Array>
          </mxGeometry>
        </mxCell>
        <mxCell id="zASFLG1L3WaEbDSjhx9o-2" value="&lt;div&gt;&lt;span style=&quot;background-color: initial;&quot;&gt;перебор каждого пользователя в списке&lt;/span&gt;&lt;br&gt;&lt;/div&gt;" style="shape=hexagon;perimeter=hexagonPerimeter2;whiteSpace=wrap;html=1;fixedSize=1;" vertex="1" parent="WIyWlLk6GJQsqaUBKTNV-1">
          <mxGeometry x="229" y="-2160" width="260" height="80" as="geometry" />
        </mxCell>
        <mxCell id="zASFLG1L3WaEbDSjhx9o-17" value="" style="edgeStyle=orthogonalEdgeStyle;rounded=0;orthogonalLoop=1;jettySize=auto;html=1;" edge="1" parent="WIyWlLk6GJQsqaUBKTNV-1" source="zASFLG1L3WaEbDSjhx9o-4" target="WIyWlLk6GJQsqaUBKTNV-6">
          <mxGeometry relative="1" as="geometry" />
        </mxCell>
        <mxCell id="zASFLG1L3WaEbDSjhx9o-4" value="вывести сообщение&amp;nbsp;&lt;div&gt;приветствия по имени&lt;/div&gt;" style="shape=parallelogram;perimeter=parallelogramPerimeter;whiteSpace=wrap;html=1;fixedSize=1;" vertex="1" parent="WIyWlLk6GJQsqaUBKTNV-1">
          <mxGeometry x="259" y="-2030" width="200" height="60" as="geometry" />
        </mxCell>
        <mxCell id="zASFLG1L3WaEbDSjhx9o-26" value="" style="edgeStyle=orthogonalEdgeStyle;rounded=0;orthogonalLoop=1;jettySize=auto;html=1;" edge="1" parent="WIyWlLk6GJQsqaUBKTNV-1" source="zASFLG1L3WaEbDSjhx9o-5" target="zASFLG1L3WaEbDSjhx9o-19">
          <mxGeometry relative="1" as="geometry" />
        </mxCell>
        <mxCell id="zASFLG1L3WaEbDSjhx9o-5" value="Вывести&amp;nbsp;&quot;Посетите наш новый сайт с бесплатными играми free.games.for.a.fool.com&quot;" style="shape=parallelogram;perimeter=parallelogramPerimeter;whiteSpace=wrap;html=1;fixedSize=1;" vertex="1" parent="WIyWlLk6GJQsqaUBKTNV-1">
          <mxGeometry x="470" y="-1905" width="260" height="90" as="geometry" />
        </mxCell>
        <mxCell id="zASFLG1L3WaEbDSjhx9o-28" value="" style="edgeStyle=orthogonalEdgeStyle;rounded=0;orthogonalLoop=1;jettySize=auto;html=1;" edge="1" parent="WIyWlLk6GJQsqaUBKTNV-1" source="zASFLG1L3WaEbDSjhx9o-6" target="zASFLG1L3WaEbDSjhx9o-21">
          <mxGeometry relative="1" as="geometry" />
        </mxCell>
        <mxCell id="zASFLG1L3WaEbDSjhx9o-6" value="Вывести&amp;nbsp;&quot;Купите подписку на МыКомбо и слушайте музыку везде и всегда.&quot;" style="shape=parallelogram;perimeter=parallelogramPerimeter;whiteSpace=wrap;html=1;fixedSize=1;" vertex="1" parent="WIyWlLk6GJQsqaUBKTNV-1">
          <mxGeometry x="455" y="-1670" width="290" height="90" as="geometry" />
        </mxCell>
        <mxCell id="zASFLG1L3WaEbDSjhx9o-30" value="" style="edgeStyle=orthogonalEdgeStyle;rounded=0;orthogonalLoop=1;jettySize=auto;html=1;" edge="1" parent="WIyWlLk6GJQsqaUBKTNV-1" source="zASFLG1L3WaEbDSjhx9o-7" target="zASFLG1L3WaEbDSjhx9o-22">
          <mxGeometry relative="1" as="geometry" />
        </mxCell>
        <mxCell id="zASFLG1L3WaEbDSjhx9o-7" value="Вывести&amp;nbsp;&quot;Оформите премиум-подписку на наш сервис, чтобы не видеть рекламу.&quot;" style="shape=parallelogram;perimeter=parallelogramPerimeter;whiteSpace=wrap;html=1;fixedSize=1;" vertex="1" parent="WIyWlLk6GJQsqaUBKTNV-1">
          <mxGeometry x="450" y="-1440" width="300" height="80" as="geometry" />
        </mxCell>
        <mxCell id="zASFLG1L3WaEbDSjhx9o-27" value="" style="edgeStyle=orthogonalEdgeStyle;rounded=0;orthogonalLoop=1;jettySize=auto;html=1;" edge="1" parent="WIyWlLk6GJQsqaUBKTNV-1" source="zASFLG1L3WaEbDSjhx9o-19" target="zASFLG1L3WaEbDSjhx9o-6">
          <mxGeometry relative="1" as="geometry" />
        </mxCell>
        <mxCell id="zASFLG1L3WaEbDSjhx9o-19" value="остановка на 1 секунду" style="rounded=1;whiteSpace=wrap;html=1;" vertex="1" parent="WIyWlLk6GJQsqaUBKTNV-1">
          <mxGeometry x="540" y="-1770" width="120" height="60" as="geometry" />
        </mxCell>
        <mxCell id="zASFLG1L3WaEbDSjhx9o-29" value="" style="edgeStyle=orthogonalEdgeStyle;rounded=0;orthogonalLoop=1;jettySize=auto;html=1;" edge="1" parent="WIyWlLk6GJQsqaUBKTNV-1" source="zASFLG1L3WaEbDSjhx9o-21" target="zASFLG1L3WaEbDSjhx9o-7">
          <mxGeometry relative="1" as="geometry" />
        </mxCell>
        <mxCell id="zASFLG1L3WaEbDSjhx9o-21" value="остановка на 2 секунды" style="rounded=1;whiteSpace=wrap;html=1;" vertex="1" parent="WIyWlLk6GJQsqaUBKTNV-1">
          <mxGeometry x="540" y="-1540" width="120" height="60" as="geometry" />
        </mxCell>
        <mxCell id="zASFLG1L3WaEbDSjhx9o-33" style="edgeStyle=orthogonalEdgeStyle;rounded=0;orthogonalLoop=1;jettySize=auto;html=1;exitX=0;exitY=0.5;exitDx=0;exitDy=0;entryX=0.062;entryY=1;entryDx=0;entryDy=0;entryPerimeter=0;" edge="1" parent="WIyWlLk6GJQsqaUBKTNV-1" source="zASFLG1L3WaEbDSjhx9o-22" target="zASFLG1L3WaEbDSjhx9o-2">
          <mxGeometry relative="1" as="geometry">
            <mxPoint x="299" y="-1990" as="targetPoint" />
            <mxPoint x="310.02" y="-1124.08" as="sourcePoint" />
            <Array as="points">
              <mxPoint x="245" y="-1300" />
            </Array>
          </mxGeometry>
        </mxCell>
        <mxCell id="zASFLG1L3WaEbDSjhx9o-22" value="остановка на 3 секунды" style="rounded=1;whiteSpace=wrap;html=1;" vertex="1" parent="WIyWlLk6GJQsqaUBKTNV-1">
          <mxGeometry x="540" y="-1330" width="120" height="60" as="geometry" />
        </mxCell>
        <mxCell id="zASFLG1L3WaEbDSjhx9o-23" value="конец" style="ellipse;whiteSpace=wrap;html=1;" vertex="1" parent="WIyWlLk6GJQsqaUBKTNV-1">
          <mxGeometry x="335" y="-1270" width="120" height="80" as="geometry" />
        </mxCell>
        <mxCell id="zASFLG1L3WaEbDSjhx9o-24" value="" style="edgeStyle=orthogonalEdgeStyle;rounded=0;orthogonalLoop=1;jettySize=auto;html=1;" edge="1" parent="WIyWlLk6GJQsqaUBKTNV-1" source="zASFLG1L3WaEbDSjhx9o-0" target="zASFLG1L3WaEbDSjhx9o-14">
          <mxGeometry relative="1" as="geometry">
            <mxPoint x="414" y="-2190" as="sourcePoint" />
            <mxPoint x="400" y="80" as="targetPoint" />
          </mxGeometry>
        </mxCell>
        <mxCell id="zASFLG1L3WaEbDSjhx9o-14" value="&lt;div&gt;создание списка пользователей&lt;/div&gt;" style="rounded=0;whiteSpace=wrap;html=1;" vertex="1" parent="WIyWlLk6GJQsqaUBKTNV-1">
          <mxGeometry x="230" y="-2250" width="270" height="60" as="geometry" />
        </mxCell>
      </root>
    </mxGraphModel>
  </diagram>
</mxfile>
